<svg width="18" height="18" viewBox="0 0 18 18" fill="none" xmlns="http://www.w3.org/2000/svg">
    <path d="M17.2857 7.46428V9.82142C17.2857 10.1488 17.1711 10.4271 16.942 10.6562C16.7128 10.8854 16.4345 11 16.1071 11H11V16.1071C11 16.4345 10.8854 16.7128 10.6562 16.942C10.4271 17.1711 10.1488 17.2857 9.82143 17.2857H7.46428C7.1369 17.2857 6.85863 17.1711 6.62946 16.942C6.4003 16.7128 6.28571 16.4345 6.28571 16.1071V11H1.17857C0.85119 11 0.572917 10.8854 0.34375 10.6562C0.114583 10.4271 0 10.1488 0 9.82142V7.46428C0 7.1369 0.114583 6.85862 0.34375 6.62946C0.572917 6.40029 0.85119 6.28571 1.17857 6.28571H6.28571V1.17856C6.28571 0.851183 6.4003 0.57291 6.62946 0.343742C6.85863 0.114576 7.1369 -7.62939e-06 7.46428 -7.62939e-06H9.82143C10.1488 -7.62939e-06 10.4271 0.114576 10.6562 0.343742C10.8854 0.57291 11 0.851183 11 1.17856V6.28571H16.1071C16.4345 6.28571 16.7128 6.40029 16.942 6.62946C17.1711 6.85862 17.2857 7.1369 17.2857 7.46428Z" fill="#50DC39"/>
    </svg>
    